<?xml version="1.0"?>
<svg xmlns="http://www.w3.org/2000/svg" height="512px" viewBox="0 0 512 512" width="512px" class=""><g><path d="m416 512h-320c-53.023438 0-96-42.976562-96-96v-320c0-53.023438 42.976562-96 96-96h320c53.023438 0 96 42.976562 96 96v320c0 53.023438-42.976562 96-96 96zm0 0" fill="#e3f8fa" data-original="#E3F8FA" class="" style="fill:#56ACE0" data-old_color="#e3f8fa"/><path d="m256.128906 138.671875c-61.199218 0-111.394531 46.863281-116.800781 106.671875h95.457031v-32c0-4.320312 2.589844-8.207031 6.574219-9.855469 3.984375-1.648437 8.578125-.734375 11.632813 2.320313l42.671874 42.671875c4.160157 4.160156 4.160157 10.910156 0 15.085937l-42.671874 42.671875c-3.054688 3.058594-7.632813 3.96875-11.632813 2.320313-3.984375-1.648438-6.574219-5.535156-6.574219-9.855469v-32h-95.441406c5.390625 59.792969 55.601562 106.671875 116.800781 106.671875 64.800781 0 117.328125-52.527344 117.328125-117.328125s-52.527344-117.375-117.34375-117.375zm0 0" fill="#26c6da" data-original="#26C6DA" class="active-path" style="fill:#FFFFFF" data-old_color="#26c6da"/></g> </svg>
